<?xml version="1.0" encoding="UTF-8" standalone="no"?>
<svg
   xmlns:dc="http://purl.org/dc/elements/1.1/"
   xmlns:cc="http://creativecommons.org/ns#"
   xmlns:rdf="http://www.w3.org/1999/02/22-rdf-syntax-ns#"
   xmlns:svg="http://www.w3.org/2000/svg"
   xmlns="http://www.w3.org/2000/svg"
   xmlns:sodipodi="http://sodipodi.sourceforge.net/DTD/sodipodi-0.dtd"
   xmlns:inkscape="http://www.inkscape.org/namespaces/inkscape"
   viewBox="0 0 48 48"
   id="svg2"
   version="1.1"
   inkscape:version="0.91 r13725"
   sodipodi:docname="kaptan.svg">
  <metadata
     id="metadata23">
    <rdf:RDF>
      <cc:Work
         rdf:about="">
        <dc:format>image/svg+xml</dc:format>
        <dc:type
           rdf:resource="http://purl.org/dc/dcmitype/StillImage" />
        <dc:title />
      </cc:Work>
    </rdf:RDF>
  </metadata>
  <sodipodi:namedview
     pagecolor="#ffffff"
     bordercolor="#666666"
     borderopacity="1"
     objecttolerance="10"
     gridtolerance="10"
     guidetolerance="10"
     inkscape:pageopacity="0"
     inkscape:pageshadow="2"
     inkscape:window-width="1807"
     inkscape:window-height="935"
     id="namedview21"
     showgrid="false"
     inkscape:zoom="4.9166667"
     inkscape:cx="0.36343129"
     inkscape:cy="24"
     inkscape:window-x="557"
     inkscape:window-y="184"
     inkscape:window-maximized="0"
     inkscape:current-layer="svg2" />
  <defs
     id="defs4">
    <clipPath
       id="clipPath6">
      <path
         d="m7 1023.36h1v1h-1z"
         id="path8" />
    </clipPath>
    <linearGradient
       id="0"
       gradientUnits="userSpaceOnUse"
       y1="61.831"
       x2="0"
       y2="-.203">
      <stop
         id="stop11"
         offset="0"
         style="stop-color:#197cf1;stop-opacity:1" />
      <stop
         offset="1"
         id="stop13"
         style="stop-color:#20bcfa;stop-opacity:1" />
    </linearGradient>
  </defs>
  <g
     fill-rule="evenodd"
     id="g15">
    <rect
       height="48"
       width="48"
       rx="2.982"
       fill="url(#0)"
       id="rect17" />
  </g>
  <g
     transform="matrix(0.45847873,0,0,0.45847873,-5.2409432,-5.1702242)"
     id="Production">
    <g
       id="g8">
      <path
         style="fill:#0b3969"
         inkscape:connector-curvature="0"
         d="m 97.7421,50.6403 c 0.3843,-3.1355 1.5181,-7.1396 2.1663,-7.8844 2.374,-2.727 8.2666,-6.1062 5.7192,-10.7158 C 99.9015,21.6738 71.6265,6.2348 44.0634,17.0411 c -7.3474,2.8804 -17.5315,7.4758 -21.691,14.999 -2.5474,4.6099 3.3451,7.9888 5.7195,10.7158 0.6746,0.7751 1.8756,5.0822 2.2097,8.2646 -6.3434,2.678 -7.4662,9.9547 -6.3954,16.8149 0.98,6.282 4.2025,9.7239 6.9925,11.3281 -0.1394,47.4303 67.4308,47.5214 67.2961,8e-4 2.79,-1.604 6.0132,-5.0464 6.9936,-11.3285 1.1584,-7.4199 -0.3403,-15.0237 -7.4463,-17.1955 z m -33.195,49.5726 c -4.7365,-0.024 -9.4157,-0.9966 -9.4157,-2.9209 0,-2.1998 6.5464,-3.3047 9.4157,-3.3487 2.8689,0.044 9.415,1.1489 9.415,3.3487 0,1.9243 -4.679,2.8969 -9.415,2.9209 z M 91.9072,73.5024 c -1.5343,6.631 -4.9905,17.9678 -12.2049,17.9678 -4.8884,0 -6.9544,-6.2002 -11.593,-6.2002 -1.3889,0 -2.8854,0.6413 -3.5622,1.3174 -0.6778,-0.6761 -2.1732,-1.3174 -3.5627,-1.3174 -4.6385,0 -6.7045,6.2002 -11.5927,6.2002 -6.7659,0 -10.9806,-11.1867 -12.0193,-17.9324 -1.4997,-0.2302 -5.2912,0.0587 -6.3631,-6.8108 -0.6906,-4.4251 -0.4759,-9.2157 3.9795,-9.3403 0.055,0.0596 -0.0566,-0.0593 0,0 l 0.0846,7.7679 c 0,3.9141 5.9251,3.9201 5.9251,0 l 0,-3.6374 c 12.3337,5.7521 35.2071,5.6608 47.1977,-0.3523 l 0,3.9897 c 0,3.9141 5.9253,3.9201 5.9253,0 l 0,-7.8582 c 4.5231,0.0883 4.6615,4.9617 3.9639,9.4305 -1.0716,6.8646 -4.9921,6.5973 -6.1782,6.7755 z M 57.4184,34.171 c 0.878,2.1218 2.3958,3.9602 4.6321,4.5743 l 0,-9.7898 -1.4135,0 c -2.4776,0 -2.4801,-3.75 0,-3.75 l 1.4135,0 0,-2.5695 c 0,-2.5085 3.8989,-2.4942 3.8989,0 l 0,2.5695 1.5628,0 c 2.4772,0 2.4809,3.75 0,3.75 l -1.5628,0 0,9.7899 c 3.8867,-1.0472 3.9893,-4.1721 4.9893,-5.0845 1.0817,-0.9874 2.7773,0.0625 2.3791,1.4624 -1.2938,4.5529 -5.3635,7.5886 -9.2392,7.5828 -4.2425,-0.0065 -8.1588,-3.2167 -9.3963,-7.583 -0.495,-1.7466 2.0443,-2.624 2.7361,-0.9521 z M 90.9665,51.634 C 88.535,63.5221 39.4292,63.3696 37.477,51.5119 53.5466,47.1472 75.1556,47.2231 90.9665,51.634 Z"
         id="path10" />
      <path
         style="fill:#0b3969"
         inkscape:connector-curvature="0"
         d="m 52.4544,67.7635 c -2.9922,0 -5.4155,2.4248 -5.4155,5.4175 0,2.9886 2.4233,5.4134 5.4155,5.4134 2.9868,0 5.414,-2.4248 5.414,-5.4134 0,-2.9927 -2.4272,-5.4175 -5.414,-5.4175 z"
         id="path12" />
      <path
         style="fill:#0b3969"
         inkscape:connector-curvature="0"
         d="m 76.7453,67.7635 c -2.9917,0 -5.417,2.4248 -5.417,5.4175 0,2.9886 2.4253,5.4134 5.417,5.4134 2.9868,0 5.4107,-2.4248 5.4107,-5.4134 0,-2.9927 -2.4239,-5.4175 -5.4107,-5.4175 z"
         id="path14" />
      <path
         style="fill:#0b3969"
         inkscape:connector-curvature="0"
         d="m 105.6276,32.0401 c 1.0313,1.8665 -0.2529,-0.4585 0,0 l 0,0 z"
         id="path16" />
    </g>
  </g>
</svg>
